<?xml version="1.0" encoding="utf-8"?>
<!-- Generator: Adobe Illustrator 22.1.0, SVG Export Plug-In . SVG Version: 6.00 Build 0)  -->
<svg version="1.1" id="Capa_1" xmlns="http://www.w3.org/2000/svg" xmlns:xlink="http://www.w3.org/1999/xlink" x="0px" y="0px"
	 viewBox="0 0 1165.4 1019.9" style="enable-background:new 0 0 1165.4 1019.9;" xml:space="preserve">
<style type="text/css">
	.st0{fill:#FFFFFF;}
</style>
<g>
	<path class="st0" d="M778.4,548.1c-50.7-79.5-140.7-129.3-237.6-129.3S357.4,466,303.2,548.1l-125.9,194
		c-21.8,32.4-28.8,68.1-28.8,108.3c3.4,39.4,18.4,75.9,42.8,103.9c25.4,28.8,57.7,50.7,96.9,57.7c35.8,7,75.9,3.4,111.9-10.4h3.4
		c89.9-39.4,190.4-35.8,276.9,0c21.8,10.4,47.2,14,71.7,14c14,0,25.4,0,39.4-3.4c35.8-7,71.7-28.8,96.9-57.7
		c25.4-28.8,39.4-64.7,42.8-103.9c3.4-39.2-7-75.9-28.8-108.3L778.4,548.1z"/>
	<path class="st0" d="M213.1,548.1c35.8-14,64.7-42.8,79.5-82.9c14-39.4,10.4-82.9-3.4-122.3c-14-39.4-42.8-71.7-79.5-93.5
		C173.9,227.6,130.2,224,94.4,239C18.5,267.7-13.9,361.2,18.5,444.3c25.4,68.1,86.5,111.9,147.7,111.9
		C184.4,555.1,199.2,555.1,213.1,548.1z"/>
	<path class="st0" d="M458.7,397c93.5,0,169.4-86.5,169.4-194S552.2,9,458.7,9S289.2,95.5,289.2,203
		C289.1,310.5,364.2,397,458.7,397z"/>
	<path class="st0" d="M749.6,444.2L749.6,444.2c14,3.4,28.8,7,42.8,7c68.1,0,132.9-50.7,158.2-125.9c14-42.8,14-89.9-3.4-129.3
		c-18.4-42.8-50.7-71.7-89.9-86.5c-39.4-14-82.9-7-122.3,14c-35.8,21.8-64.7,57.7-79.5,103.9C627.3,318.3,666.7,415.4,749.6,444.2z"
		/>
	<path class="st0" d="M1106.1,422.4L1106.1,422.4c-64.7-47.2-161.6-25.4-215.8,47.2C836.1,541.3,843.1,639,908.7,689
		c25.4,18.4,50.7,25.4,79.5,25.4c50.7,0,100.5-25.4,137.2-71.7C1178.6,566.5,1170.8,469.5,1106.1,422.4z"/>
</g>
</svg>
